<?xml version="1.0" encoding="utf-8"?>
<!-- Generator: Adobe Illustrator 23.0.1, SVG Export Plug-In . SVG Version: 6.00 Build 0)  -->
<svg version="1.1" id="Layer_1" xmlns="http://www.w3.org/2000/svg" xmlns:xlink="http://www.w3.org/1999/xlink" x="0px" y="0px"
	 viewBox="0 0 72 72" style="enable-background:new 0 0 72 72;" xml:space="preserve">
<style type="text/css">
	.st0{fill:#FFFFFF;}
</style>
<path id="Icon_awesome-bars" class="st0" d="M5.4,17.6h61.3c1.3,0,2.4-1.1,2.4-2.4V9.4C69,8.1,67.9,7,66.6,7H5.4C4.1,7,3,8.1,3,9.4
	v5.9C3,16.6,4.1,17.6,5.4,17.6z M5.4,41.2h61.3c1.3,0,2.4-1.1,2.4-2.4v-5.9c0-1.3-1.1-2.4-2.4-2.4H5.4c-1.3,0-2.4,1.1-2.4,2.4
	c0,0,0,0,0,0v5.9C3,40.1,4.1,41.2,5.4,41.2C5.4,41.2,5.4,41.2,5.4,41.2L5.4,41.2z M5.4,64.7h61.3c1.3,0,2.4-1.1,2.4-2.4v-5.9
	c0-1.3-1.1-2.4-2.4-2.4H5.4c-1.3,0-2.4,1.1-2.4,2.4v5.9C3,63.7,4.1,64.8,5.4,64.7L5.4,64.7z"/>
<g>
</g>
<g>
</g>
<g>
</g>
<g>
</g>
<g>
</g>
<g>
</g>
<g>
</g>
<g>
</g>
<g>
</g>
<g>
</g>
<g>
</g>
</svg>
